PathFileType	4	(X/Y/Z)	Patient4_TMGait_0pt6_01_left_33.trc.trc
DataRate	CameraRate	NumFrames	NumMarkers	Units	OrigDataRate	OrigDataStartFrame	OrigNumFrames
82.352941176471	82.352941176471	4	33	mm	82.352941176471	89	       141
Frame#	Time	Sacral			L.Shoulder			Chest			R.Shoulder			Neck			R.ASIS			L.ASIS			R.Thigh.Superior			R.Thigh.Lateral			R.Thigh.Inferior			R.Patella			L.Thigh.Superior			L.Thigh.Lateral			L.Thigh.Inferior			L.Patella			L.Shank.Superior			L.Shank.Lateral			L.Shank.Inferior			R.Shank.Superior			R.Shank.Lateral			R.Shank.Inferior			R.Heel			R.Midfoot.Superior			R.Midfoot.Lateral			R.Toe			L.Heel			L.Midfoot.Lateral			L.Midfoot.Superior			L.Toe			L.Elbow			L.Wrist			R.Elbow			R.Wrist			
		X1	Y1	Z1	X2	Y2	Z2	X3	Y3	Z3	X4	Y4	Z4	X5	Y5	Z5	X6	Y6	Z6	X7	Y7	Z7	X8	Y8	Z8	X9	Y9	Z9	X10	Y10	Z10	X11	Y11	Z11	X12	Y12	Z12	X13	Y13	Z13	X14	Y14	Z14	X15	Y15	Z15	X16	Y16	Z16	X17	Y17	Z17	X18	Y18	Z18	X19	Y19	Z19	X20	Y20	Z20	X21	Y21	Z21	X22	Y22	Z22	X23	Y23	Z23	X24	Y24	Z24	X25	Y25	Z25	X26	Y26	Z26	X27	Y27	Z27	X28	Y28	Z28	X29	Y29	Z29	X30	Y30	Z30	X31	Y31	Z31	X32	Y32	Z32	X33	Y33	Z33	

89	41.238571428571	765.464263062940	997.806894954252	486.278713305518	929.193032285270	1430.256926706871	308.434139135775	1032.986830288215	1365.369744481455	469.968976336083	943.124093200910	1431.790826809963	642.684193662788	904.066560248278	1488.856162582406	461.342221991243	993.834022126379	942.858035819630	607.383073473700	981.146012998358	951.960755240955	331.062545834950	1054.082797789560	748.648644690082	572.905972089716	984.670810259823	632.671910098993	631.267927903695	1063.997953079757	588.851137361548	547.399036464982	1072.993419803688	499.387168670122	551.141005492051	1026.542682712977	734.278137240504	361.841861402000	945.208568007189	618.070439137590	294.537816332245	1033.758801661247	535.516823483923	353.335883372469	1025.775071293046	447.917520938766	350.286640431934	952.802600833001	391.541319458884	345.762719686006	808.678384674206	359.755729190484	300.334313467733	783.745483317217	234.708798877955	358.273976152894	1050.287645824941	409.141284887978	557.796595332156	987.591292236923	300.445478623283	619.604316210753	1032.470808849805	209.343244411766	553.604704996657	905.594805377711	42.196818120406	524.068064872928	1076.603812788605	97.942552126027	557.621119422987	989.932465410660	36.834067104888	597.705668825724	1197.688541041013	45.539981795714	583.099099015147	588.393243240807	190.677693435296	396.776506557908	640.892931624609	132.888515796758	322.523395964851	744.725314306209	131.781980260320	344.802228522614	811.654576883846	29.058575471476	330.080820807892	967.793852976516	1074.838505538349	196.493935818639	1161.724978293322	900.315864300553	218.708400189801	901.957789023964	1082.874345065834	756.961030703700	1005.925782514679	842.773293075271	751.869888006923	
90	41.250714285714	765.960158041874	998.143650639038	489.401152586520	927.550890033905	1430.600664218279	309.725296378325	1032.735417590923	1366.195953244768	470.574746265001	944.147363622728	1432.583976682659	643.951539180173	903.610370034963	1489.401386662371	462.772354819116	994.901605976523	943.593960266622	608.616231654782	980.903154647232	952.434387221034	332.112231202262	1053.377903414839	747.980405686242	574.828582551437	982.620299590492	632.526732928952	632.748710709748	1061.506900707294	588.148524424943	548.757404358803	1069.512705018495	498.637493684905	552.003909524195	1031.473311033118	737.884996300161	362.666570038789	954.292482850099	619.924183474977	294.260748112304	1045.838284993124	539.491154499974	352.405541002075	1039.563464196187	450.956584916429	348.907698263519	965.442842219728	394.379267946770	344.481075733211	820.148997497875	366.896799280071	299.431430373966	792.213786947021	242.085238018591	356.770715782961	1046.151830485783	408.514879780627	558.515134707942	982.741172139207	300.176216376877	620.165029337312	1026.535649807809	208.888154866877	553.813814112586	898.375208682131	42.250523128767	524.199116146165	1069.471015273624	97.855368750481	557.749176437790	982.683964471865	36.790433099001	597.833418955156	1190.494128918176	45.244785216060	583.261387490884	596.016311796924	207.629031866881	395.187244935541	645.153521722939	145.625662955958	321.571733256741	749.221791727154	138.361826785314	343.872432167326	808.931100835851	28.358260487824	330.413310323901	963.350582141737	1073.859043553778	200.406424513892	1146.333382354811	887.218008945474	219.273500900990	910.951818800299	1083.510971717360	761.122592511490	1028.027622333451	849.631601409966	753.962923299952	
91	41.262857142857	766.308420406571	998.490267333712	492.377082400917	925.843751121548	1430.806152118782	310.856447617964	1032.416579072007	1366.965919047182	471.048658881891	945.118908224367	1433.409637871617	645.065175353773	903.125165024596	1489.887060178542	464.046595265104	995.718133412554	944.160638777699	609.820762639362	980.544013547384	952.930062517867	333.267868134785	1052.426980896846	747.241864086002	576.738125841816	980.343893376826	632.324889748877	634.166769481077	1058.806560250816	587.411198629275	550.109123757455	1065.821899106074	497.867548290574	552.906931236594	1036.121865308859	741.708827228611	363.420061428364	962.931514070539	622.268541692081	293.939168614560	1057.244017854990	544.016496221377	351.591257506216	1052.838354009241	454.660977964811	347.736221171232	977.839259245637	397.749740282085	343.373263874909	831.747789047602	373.802435541528	298.361247982549	801.249640035935	249.264770225739	355.337378947906	1041.840257586588	407.862799537089	559.240477879999	977.693653877236	299.871133891624	620.704032407584	1020.478666089782	208.407740905883	554.038749385116	891.072244006110	42.299229547721	524.318747631982	1062.274501259507	97.735054820170	557.852066659155	975.354541120954	36.740211776416	597.947499061149	1183.227946003482	44.904758144664	583.390063052047	604.592930423629	222.862887712176	393.325277277706	650.920379322247	157.330769625968	320.421489470902	754.962537354179	144.970885419578	342.931778883223	808.389471983222	28.222078530871	330.769280028539	958.592231108843	1072.763703025767	204.065434213236	1129.854253711260	874.932555764292	219.587716729752	919.871498034560	1084.440196993135	765.087451493795	1050.147827490875	857.820108011646	755.699336762485	
92	41.275000000000	766.490736027060	998.883558354013	495.163091341989	924.133899145918	1430.918266059418	311.846096509304	1032.058146908942	1367.688331283265	471.416751015001	946.056987083633	1434.299518707086	646.032976762991	902.654551066053	1490.343307378561	465.184716009104	996.276674664543	944.579974969528	611.013213910835	980.025369560566	953.495164540699	334.554678607395	1051.247830744760	746.483684465484	578.544980296312	977.887726711293	632.107891486657	635.491674576486	1055.912624131835	586.662642111871	551.404441902867	1061.939833543035	497.101198141680	553.816549420606	1040.429673836522	745.731992606055	364.181275607392	971.102652156333	625.088539406470	293.622478877503	1067.914565984112	549.044486443196	350.975909195749	1065.517764778226	458.983414829006	346.800188781125	989.917486988579	401.592275718550	342.466300133056	843.353978383114	380.279940188009	297.184250328936	810.854100017134	255.984424812867	353.998972020056	1037.375082088937	407.212315153875	559.948985209982	972.484366169734	299.565043238547	621.219843584287	1014.324322649189	207.928964310676	554.273502043835	883.712762057584	42.347408063530	524.434837957010	1055.033271509858	97.602899028465	557.939071879425	967.974636988054	36.693773040009	598.054725529647	1175.914725117528	44.552223756666	583.493895869863	613.989093167033	235.715442619349	391.274287909244	658.242595908434	167.452071395104	319.095335172931	762.107399314894	151.292901685296	341.953349843720	810.564223639784	28.721773219363	331.040124941812	953.472935054905	1071.628172175695	207.422924594257	1112.406216319110	863.635790783925	219.674679391109	928.709431903273	1085.658016097065	768.770041996690	1072.124715139777	867.386838212284	757.035240191560	
